<?xml version="1.0" encoding="UTF-8" standalone="no"?>
<!-- Created with Inkscape (http://www.inkscape.org/) -->

<svg
   xmlns:dc="http://purl.org/dc/elements/1.1/"
   xmlns:cc="http://creativecommons.org/ns#"
   xmlns:rdf="http://www.w3.org/1999/02/22-rdf-syntax-ns#"
   xmlns:svg="http://www.w3.org/2000/svg"
   xmlns="http://www.w3.org/2000/svg"
   xmlns:sodipodi="http://sodipodi.sourceforge.net/DTD/sodipodi-0.dtd"
   xmlns:inkscape="http://www.inkscape.org/namespaces/inkscape"
   width="210mm"
   height="297mm"
   viewBox="0 0 210 297"
   version="1.1"
   id="svg8"
   inkscape:version="0.92.4 (5da689c313, 2019-01-14)"
   sodipodi:docname="dibujo.svg">
  <defs
     id="defs2" />
  <sodipodi:namedview
     id="base"
     pagecolor="#ffffff"
     bordercolor="#666666"
     borderopacity="1.0"
     inkscape:pageopacity="0.0"
     inkscape:pageshadow="2"
     inkscape:zoom="0.35"
     inkscape:cx="400"
     inkscape:cy="560"
     inkscape:document-units="mm"
     inkscape:current-layer="layer1"
     showgrid="false"
     inkscape:window-width="1842"
     inkscape:window-height="973"
     inkscape:window-x="-8"
     inkscape:window-y="-8"
     inkscape:window-maximized="1" />
  <metadata
     id="metadata5">
    <rdf:RDF>
      <cc:Work
         rdf:about="">
        <dc:format>image/svg+xml</dc:format>
        <dc:type
           rdf:resource="http://purl.org/dc/dcmitype/StillImage" />
        <dc:title></dc:title>
      </cc:Work>
    </rdf:RDF>
  </metadata>
  <g
     inkscape:label="Capa 1"
     inkscape:groupmode="layer"
     id="layer1">
    <circle
       style="fill:#0000ff;stroke-width:0.26458332"
       id="path34"
       cx="108.10119"
       cy="148.83333"
       r="76.351196" />
    <path
       style="fill:#ffffff;stroke-width:0.26458332"
       id="path30"
       d="m 83.064664,125.23926 c -1.957298,-1.09259 -4.052337,-1.85624 -6.242127,-2.30999 -1.625991,-0.26184 -3.2404,-0.49286 -4.797533,0.12617 -1.957337,1.17441 -4.10088,2.00147 -6.046658,3.18848 16.306612,-9.84404 6.776963,-4.08988 3.540559,-0.86168 -1.208739,1.19364 -1.96106,2.59273 -2.331225,4.23407 -0.118499,1.27604 -0.473655,2.69776 -0.0077,3.9349 1.754172,1.09284 4.002926,1.10525 6.003171,1.26069 3.691848,0.20891 7.391477,0.20429 11.087878,0.18854 2.289342,0.01 4.55386,0.0558 6.814478,-0.31775 0.286388,-0.0453 0.57844,-0.0633 0.859166,-0.13578 0.830612,-0.21458 1.494578,-0.78734 1.140235,-0.55861 -6.683433,4.31415 -6.031944,6.48235 -10.414741,6.09309 -1.38258,-0.13197 -2.701689,0.4681 -3.900336,1.09892 -0.22551,0.14778 -0.439375,0.31507 -0.676532,0.44332 -0.524888,0.28386 -2.097048,1.13968 -1.578935,0.84363 15.593446,-8.90983 10.365824,-6.07602 7.029095,-3.96351 -1.544711,0.81317 -2.567556,2.05548 -3.505599,3.47807 -1.010994,1.5059 -1.79891,3.13147 -2.506888,4.796 -0.707257,1.78022 -1.438645,3.5442 -1.875702,5.41299 -0.143968,1.00176 -0.703072,2.45688 0.481642,2.96223 2.116563,0.3025 4.268882,0.26154 6.402289,0.27255 2.996851,0.0557 5.984746,0.0544 8.931191,-0.54141 2.225489,-0.36664 4.156699,-1.57881 6.158592,-2.54699 4.057956,-2.45489 -0.304567,0.19501 -7.247869,4.1397 -0.410223,0.23306 0.803656,-0.49453 1.203185,-0.74549 1.185299,-0.74451 2.35168,-1.51819 3.528309,-2.27621 0,0 10.398431,-4.03498 10.398431,-4.03498 v 0 c -5.50141,3.3549 -10.702948,7.22302 -16.619955,9.88857 -2.034193,0.98718 -4.042391,2.03993 -6.332222,2.28191 -2.99561,0.41466 -6.007296,0.40782 -9.027274,0.3711 -2.279346,-0.0154 -4.760587,0.21377 -6.883577,-0.74048 -1.442657,-1.20676 -1.402459,-2.38547 -1.093245,-4.14583 0.370451,-1.95238 1.078394,-3.7723 1.813078,-5.61232 0.690891,-1.71421 1.400765,-3.41178 2.390947,-4.98018 0.97491,-1.46561 1.752907,-3.01663 3.33996,-3.94142 4.798613,-2.81289 9.473874,-5.87707 14.471425,-8.34013 1.414592,-0.53411 2.816841,-0.9228 4.333028,-0.54467 5.936311,1.79795 -5.722056,7.50987 -9.794698,7.73886 -2.269646,0.25531 -4.553913,0.12437 -6.833735,0.13808 -3.711167,-0.0318 -7.426039,-0.041 -11.131433,-0.27087 -2.351508,-0.21803 -5.1465,-0.2828 -6.790851,-2.22079 -0.603282,-1.44092 -0.396783,-2.98436 -0.263745,-4.51038 0.268221,-1.80447 0.828334,-3.4657 2.107168,-4.82515 4.036819,-4.72989 10.476696,-7.31167 15.451365,-10.47025 2.053127,-1.07622 4.105648,-2.23127 6.285838,-3.0144 1.706814,-0.2633 3.422111,-0.0414 5.100389,0.33555 2.202569,0.57966 4.27695,1.47178 6.347886,2.41078 0,0 -9.31673,6.27107 -9.31673,6.27107 z"
       inkscape:connector-curvature="0" />
    <path
       style="fill:#ffffff;stroke-width:0.26458332"
       id="path32"
       d="m 130.92775,115.30007 c 5.69401,-0.0278 11.40137,-0.669 17.03235,-1.50566 0.82277,-0.13531 1.64553,-0.27061 2.4683,-0.40591 0,0 -8.7913,6.59647 -8.7913,6.59647 v 0 c -0.80951,0.1181 -1.61902,0.2362 -2.42854,0.35429 -5.75631,0.74398 -11.54825,1.37531 -17.35163,1.55114 0,0 9.07082,-6.59033 9.07082,-6.59033 z"
       inkscape:connector-curvature="0" />
    <path
       style="fill:#ffffff;stroke-width:0.26458332"
       id="path35"
       d="m 148.62034,120.0715 c -0.095,4.05929 -0.0799,8.12036 -0.0717,12.18049 0.0805,4.07686 0.0119,8.14471 -0.39949,12.20249 -0.41918,3.70615 -1.34511,7.30401 -2.40544,10.86896 -0.99396,3.18098 -2.52641,6.15433 -4.0652,9.09799 -1.41213,2.43256 -2.99674,4.76819 -4.86485,6.87342 -4.1968,4.41269 -9.41902,6.96082 -15.19308,7.30475 -2.06669,-0.1319 -3.90074,-1.17217 -5.74079,-2.02695 -2.10701,-0.95838 -2.8365,-2.24701 -3.37038,-4.418 0,0 9.86562,-5.31057 9.86562,-5.31057 v 0 c 0.40845,1.93566 0.98432,2.74247 2.84889,3.54674 1.70958,0.80926 3.45773,1.69821 5.40567,1.54775 0.96872,-0.10539 1.94518,-0.20616 2.87138,-0.53347 0.3125,-0.11043 1.19346,-0.57234 0.91029,-0.40009 -10.61209,6.4552 -11.31572,6.98428 -7.9228,4.58814 2.02646,-1.92793 3.53412,-4.30149 5.08186,-6.61437 1.48671,-2.91431 3.08193,-5.79723 4.13002,-8.90715 1.09763,-3.5082 2.1005,-7.04415 2.54693,-10.70485 0.45846,-4.02334 0.53029,-8.05631 0.46603,-12.10344 0.008,-4.03576 0.024,-8.0725 -0.0717,-12.1074 0,0 9.97878,-5.08444 9.97878,-5.08444 z"
       inkscape:connector-curvature="0" />
  </g>
</svg>
